# xmcd
#
# Track frame offsets:
#	150
#	22415
#	39629
#	58063
#	80251
#	95159
#	114467
#	133128
#	154533
#	171241
#	182881
#	196268
#	215777
#	231670
#	246877
#	261768
#	279528
#	292007
#	313448
#	329980
#
# Disc length: 4451 seconds
#
# Revision: 0
# Processed by: cddbd v1.5.1PL2 Copyright (c) Steve Scherf et al.
# Submitted via: EasyCDDAExtractor 9.0.0.1
#
DISCID=4b116114
DTITLE=Various Artist - Viva Only New 4 (2001)
DYEAR=2001
DGENRE=Disco
TTITLE0=ATC-All Around The World (Extended Club Remix)
TTITLE1=Joakino-Venga Venga (Club Mix)
TTITLE2=Boyz II Men-Beautiful Woman
TTITLE3=Soundtrax-Man No.3 (Extended Version)
TTITLE4=Vanilla Ice-Ice Ice Baby 2001 (Club Mix)
TTITLE5=Janet Jackson-Doesn´t Really Matter (Radio Edit)
TTITLE6=Epo Vs. Project House Punk!-Popcorn 2001 (R.Ercolino Mix)
TTITLE7=Africando-Aicha 2000 (Twin Tower Remix)
TTITLE8=Madonna-Music
TTITLE9=D.J.Cookie-Fly On The Wings Of Love (Dub Mix)
TTITLE10=Camilla Brinck-Bye Bye Forever (Radio Cut)
TTITLE11=Floorfilla-Anthem No.4 (Extended Version)
TTITLE12=Club Tequilla-Carolina (Tequilla Edit)
TTITLE13=Britney Spears-Lucky (Radio Edit)
TTITLE14=Bamma B.-Shalalaleng (Radio Mix)
TTITLE15=Robbie Williams-Rock DJ
TTITLE16=Eiffel 65-My Console (Alternative Mix)
TTITLE17=Redford-I Like Chopin (Extended Version)
TTITLE18=Mondo Club-Sex Up My Life (Radio Edit)
TTITLE19=Mark Ashley-On A Sunday (Radio Mix)
EXTD=
EXTT0=
EXTT1=
EXTT2=
EXTT3=
EXTT4=
EXTT5=
EXTT6=
EXTT7=
EXTT8=
EXTT9=
EXTT10=
EXTT11=
EXTT12=
EXTT13=
EXTT14=
EXTT15=
EXTT16=
EXTT17=
EXTT18=
EXTT19=
PLAYORDER=
